<svg width="68" height="95" viewBox="0 0 68 95" fill="none" xmlns="http://www.w3.org/2000/svg">
<g clip-path="url(#clip0)">
<path d="M64.9695 6.10352e-05H2.32953C1.04124 6.10352e-05 -0.000183105 1.02828 -0.000183105 2.30023V92.7075C-0.000183105 93.9795 1.04124 95.0077 2.32953 95.0077H64.9695C66.2578 95.0077 67.2992 93.9795 67.2992 92.7075V2.30023C67.2915 1.02828 66.2501 6.10352e-05 64.9695 6.10352e-05Z" fill="url(#paint0_linear)"/>
<path d="M60.8578 4.09772H6.43353C5.18381 4.09772 4.16553 5.10309 4.16553 6.34457V81.0924C4.16553 82.3339 5.18381 83.3316 6.43353 83.3316H60.8578C62.1152 83.3316 63.1258 82.3263 63.1258 81.0924V6.34457C63.1258 5.10309 62.1152 4.09772 60.8578 4.09772Z" fill="white"/>
<path d="M44.7735 39.6361H22.5255C21.5072 39.6361 20.6818 38.8211 20.6818 37.8158V15.8423C20.6818 14.8369 21.5072 14.022 22.5255 14.022H44.7735C45.7918 14.022 46.6172 14.8369 46.6172 15.8423V37.8081C46.6172 38.8135 45.7918 39.6361 44.7735 39.6361Z" fill="url(#paint1_linear)"/>
<path d="M33.6495 92.5476C35.5412 92.5476 37.0746 91.0335 37.0746 89.1659C37.0746 87.2982 35.5412 85.7842 33.6495 85.7842C31.7579 85.7842 30.2244 87.2982 30.2244 89.1659C30.2244 91.0335 31.7579 92.5476 33.6495 92.5476Z" fill="white"/>
<path d="M53.0355 51.0151H14.2558C13.2761 51.0151 12.4738 50.223 12.4738 49.2557C12.4738 48.2884 13.2761 47.4963 14.2558 47.4963H53.0278C54.0075 47.4963 54.8098 48.2884 54.8098 49.2557C54.8098 50.223 54.0152 51.0151 53.0355 51.0151Z" fill="url(#paint2_linear)"/>
<path opacity="0.6" d="M46.4707 60.7641H13.6078C12.983 60.7641 12.4815 60.2614 12.4815 59.6521V59.5302C12.4815 58.9133 12.9907 58.4182 13.6078 58.4182H46.4707C47.0955 58.4182 47.5969 58.9209 47.5969 59.5302V59.6521C47.6047 60.2614 47.0955 60.7641 46.4707 60.7641Z" fill="url(#paint3_linear)"/>
<path opacity="0.3" d="M40.2144 66.9563H13.4998C12.9367 66.9563 12.4738 66.4993 12.4738 65.9433V65.6082C12.4738 65.0522 12.9367 64.5952 13.4998 64.5952H40.2067C40.7698 64.5952 41.2327 65.0522 41.2327 65.6082V65.9433C41.2327 66.4993 40.7698 66.9563 40.2144 66.9563Z" fill="url(#paint4_linear)"/>
<path opacity="0.6" d="M43.5778 72.6914H13.5615C12.9675 72.6914 12.4815 72.2116 12.4815 71.6251V71.4119C12.4815 70.8254 12.9675 70.3456 13.5615 70.3456H43.5778C44.1718 70.3456 44.6578 70.8254 44.6578 71.4119V71.6251C44.6578 72.204 44.1718 72.6914 43.5778 72.6914Z" fill="url(#paint5_linear)"/>
<path d="M33.7164 26.1208C35.944 26.1208 37.7497 24.3142 37.7497 22.0854C37.7497 19.8567 35.944 18.05 33.7164 18.05C31.4888 18.05 29.6831 19.8567 29.6831 22.0854C29.6831 24.3142 31.4803 26.1208 33.7164 26.1208ZM33.7164 28.1385C31.0247 28.1385 25.6498 29.4893 25.6498 32.1739V33.187C25.6498 33.7442 26.1055 34.2 26.6624 34.2H40.7873C41.3442 34.2 41.7998 33.7442 41.7998 33.187V32.1739C41.7829 29.4977 36.408 28.1385 33.7164 28.1385Z" fill="white"/>
</g>
<defs>
<linearGradient id="paint0_linear" x1="4.0768" y1="45.0302" x2="67.3443" y2="50.4539" gradientUnits="userSpaceOnUse">
<stop stop-color="#6CBCFC"/>
<stop offset="1" stop-color="#458DFC"/>
</linearGradient>
<linearGradient id="paint1_linear" x1="18.6706" y1="19.2924" x2="48.4652" y2="34.6686" gradientUnits="userSpaceOnUse">
<stop stop-color="#B0F4FF"/>
<stop offset="0.0856277" stop-color="#A3F0FE"/>
<stop offset="0.2972" stop-color="#8AE7FD"/>
<stop offset="0.5161" stop-color="#77E1FD"/>
<stop offset="0.7451" stop-color="#6DDDFC"/>
<stop offset="1" stop-color="#69DCFC"/>
</linearGradient>
<linearGradient id="paint2_linear" x1="54.8135" y1="49.2571" x2="12.4811" y2="49.2571" gradientUnits="userSpaceOnUse">
<stop stop-color="#6CBCFC"/>
<stop offset="1" stop-color="#458DFC"/>
</linearGradient>
<linearGradient id="paint3_linear" x1="47.6025" y1="59.5878" x2="12.4811" y2="59.5878" gradientUnits="userSpaceOnUse">
<stop stop-color="#6CBCFC"/>
<stop offset="1" stop-color="#458DFC"/>
</linearGradient>
<linearGradient id="paint4_linear" x1="41.2334" y1="65.78" x2="12.4811" y2="65.78" gradientUnits="userSpaceOnUse">
<stop stop-color="#6CBCFC"/>
<stop offset="1" stop-color="#458DFC"/>
</linearGradient>
<linearGradient id="paint5_linear" x1="44.6572" y1="71.5124" x2="12.4811" y2="71.5124" gradientUnits="userSpaceOnUse">
<stop stop-color="#6CBCFC"/>
<stop offset="1" stop-color="#458DFC"/>
</linearGradient>
<clipPath id="clip0">
<rect width="67.2917" height="95" fill="white" transform="translate(-0.000183105)"/>
</clipPath>
</defs>
</svg>
