<svg width="68" height="95" viewBox="0 0 68 95" fill="none" xmlns="http://www.w3.org/2000/svg">
<g clip-path="url(#clip0)">
<path d="M67.7104 90.4482C67.7104 92.9272 65.7039 94.942 63.2248 94.942L5.21995 95.0083C3.24666 95.0083 1.57185 93.7398 0.966595 91.9737C0.809063 91.5177 0.726151 91.0368 0.726151 90.5311L0.634949 6.88167C0.634949 4.40261 2.64141 2.38786 5.12046 2.38786L58.3828 2.32982L63.1254 2.32153C65.6044 2.32153 67.6192 4.32799 67.6192 6.80704L67.7104 90.4482Z" fill="url(#paint0_linear)"/>
<path d="M61.6993 89.9673L6.73724 90.0254C5.40237 90.0254 4.32452 88.9475 4.32452 87.6126L4.24161 9.76703C4.24161 8.43215 5.31946 7.3543 6.65433 7.3543L61.6081 7.29626C62.943 7.29626 64.0208 8.37411 64.0208 9.70899L64.1037 87.5546C64.112 88.8812 63.0342 89.9673 61.6993 89.9673Z" fill="white"/>
<path d="M53.9802 13.7136L13.8925 13.7633C12.5659 13.7633 11.4798 12.6855 11.4798 11.3589L11.4715 4.67623C11.4715 3.34964 12.5493 2.2635 13.8759 2.2635L53.9719 2.22205C55.2985 2.22205 56.3846 3.2999 56.3846 4.62648L56.3929 11.3091C56.3846 12.6357 55.3068 13.7136 53.9802 13.7136ZM13.8759 3.49059C13.2292 3.49059 12.6986 4.02123 12.6986 4.66793L12.7068 11.3506C12.7068 11.9973 13.2375 12.5279 13.8842 12.5279L53.9802 12.4865C54.6269 12.4865 55.1575 11.9559 55.1575 11.3091L55.1493 4.62648C55.1493 3.97977 54.6186 3.44914 53.9719 3.44914L13.8759 3.49059Z" fill="url(#paint1_linear)"/>
<path d="M52.8443 5.11564L15.4098 5.1571C14.9952 5.1571 14.6636 4.82545 14.6636 4.41089V0.787659C14.6636 0.373102 14.9952 0.0414557 15.4098 0.0414557L52.8361 0C53.2506 0 53.5823 0.331646 53.5823 0.746203V4.36944C53.5905 4.78399 53.2589 5.11564 52.8443 5.11564Z" fill="url(#paint2_linear)"/>
<path d="M15.4429 5.15714L52.8111 5.11568C53.2423 5.11568 53.5905 4.76746 53.5905 4.33632V2.56201L14.6553 2.60347V4.37777C14.6553 4.80891 15.0118 5.15714 15.4429 5.15714Z" fill="#58D6F4"/>
<path d="M28.5761 81.2118L25.3426 61.6447L22.7226 70.1597L15.2274 70.168C14.7714 70.168 14.4066 69.8031 14.4066 69.3471C14.4066 68.8911 14.7714 68.5263 15.2274 68.5263L21.5204 68.518L25.8401 54.4977L29.0736 74.1145L33.2689 60.6414L35.4992 67.0256L40.5237 54.8459L45.4072 74.1643L47.2478 68.0205L52.6371 68.0123C53.0931 68.0123 53.4579 68.3771 53.4579 68.8331C53.4579 69.2891 53.0931 69.6539 52.6371 69.6539L48.4666 69.6622L45.2745 80.3163L40.1506 60.0528L35.3666 71.6355L33.3518 65.8731L28.5761 81.2118Z" fill="#58D6F4"/>
<path d="M23.021 43.4871L12.483 43.4954C10.7833 43.4954 9.39036 42.1107 9.39036 40.411L9.37378 25.6777C9.37378 23.978 10.7584 22.5851 12.4581 22.5851L22.9961 22.5768C24.6958 22.5768 26.0887 23.9614 26.0887 25.6611L26.1053 40.3945C26.1053 42.0942 24.7207 43.4788 23.021 43.4871ZM12.4498 23.4805C11.2393 23.4805 10.2609 24.4672 10.2609 25.6777L10.2775 40.411C10.2775 41.6216 11.2642 42.5999 12.4747 42.5999L23.0127 42.5916C24.2232 42.5916 25.2016 41.605 25.2016 40.3945L25.185 25.6611C25.185 24.4506 24.1984 23.4722 22.9879 23.4722L12.4498 23.4805Z" fill="url(#paint3_linear)"/>
<path d="M17.7396 40.6598C22.7226 40.6515 24.273 37.7745 24.273 37.7745C24.0492 37.4926 23.7673 37.2439 23.3859 36.9951C22.0759 36.1411 21.0229 35.7763 20.5835 35.4115C20.1357 35.055 19.887 34.5327 19.887 34.5327L19.6134 34.6985C19.6134 34.6985 19.4476 34.1264 19.5388 33.2558C19.5388 33.2558 19.9285 33.1563 20.2186 31.838C20.6829 31.9292 21.2302 30.7519 20.9731 30.3207C20.8073 30.0388 20.6083 30.0637 20.4674 30.1301C20.6083 29.5414 21.2467 26.283 17.7313 26.283C14.2158 26.283 14.8543 29.5414 15.0035 30.1301C14.8626 30.0637 14.6636 30.0388 14.4977 30.3207C14.2407 30.7519 14.7962 31.9292 15.2605 31.838C15.5507 33.1563 15.9487 33.2475 15.9487 33.2475C16.0482 34.1098 15.8741 34.6902 15.8741 34.6902L15.6005 34.5244C15.6005 34.5244 15.3517 35.0384 14.904 35.4032C14.4563 35.768 13.4116 36.1411 12.1016 36.9951C11.7202 37.2439 11.43 37.4926 11.2144 37.7745C11.2062 37.7911 12.7649 40.6681 17.7396 40.6598Z" fill="url(#paint4_linear)"/>
<path d="M50.556 27.2779L30.2675 27.3028C29.8861 27.3028 29.5793 26.996 29.5793 26.6146V26.4986C29.5793 26.1172 29.8861 25.8104 30.2675 25.8104L50.556 25.7855C50.9373 25.7855 51.2441 26.0923 51.2441 26.4737V26.5898C51.2441 26.9712 50.9291 27.2779 50.556 27.2779Z" fill="url(#paint5_linear)"/>
<path d="M43.0939 31.1416L30.2675 31.1582C29.8861 31.1582 29.5793 30.8514 29.5793 30.47V30.3539C29.5793 29.9725 29.8861 29.6658 30.2675 29.6658L43.0939 29.6492C43.4753 29.6492 43.7821 29.9559 43.7821 30.3373V30.4534C43.7821 30.8348 43.4753 31.1416 43.0939 31.1416Z" fill="url(#paint6_linear)"/>
<path opacity="0.6" d="M57.5537 35.7348L30.2758 35.768C29.8944 35.768 29.5876 35.4612 29.5876 35.0798V34.9638C29.5876 34.5824 29.8944 34.2756 30.2758 34.2756L57.5537 34.2424C57.9351 34.2424 58.2419 34.5492 58.2419 34.9306V35.0467C58.2336 35.4281 57.9268 35.7348 57.5537 35.7348Z" fill="url(#paint7_linear)"/>
<path opacity="0.6" d="M56.965 48.6441L11.4632 48.6939C11.0735 48.6939 10.7502 48.3788 10.7502 47.9808V47.9145C10.7502 47.5248 11.0652 47.2015 11.4632 47.2015L56.965 47.1517C57.3547 47.1517 57.6781 47.4668 57.6781 47.8648V47.9311C57.6781 48.3291 57.3547 48.6441 56.965 48.6441Z" fill="url(#paint8_linear)"/>
<path opacity="0.6" d="M57.5537 40.2452L30.2758 40.2784C29.8944 40.2784 29.5876 39.9716 29.5876 39.5902V39.4741C29.5876 39.0927 29.8944 38.786 30.2758 38.786L57.5537 38.7528C57.9351 38.7528 58.2419 39.0596 58.2419 39.441V39.5571C58.2419 39.9384 57.9351 40.2452 57.5537 40.2452Z" fill="url(#paint9_linear)"/>
</g>
<defs>
<linearGradient id="paint0_linear" x1="-8.65374" y1="34.748" x2="76.999" y2="62.5782" gradientUnits="userSpaceOnUse">
<stop stop-color="#6CBCFC"/>
<stop offset="0.1713" stop-color="#5EABFC"/>
<stop offset="0.4084" stop-color="#509AFC"/>
<stop offset="0.6698" stop-color="#4890FC"/>
<stop offset="1" stop-color="#458DFC"/>
</linearGradient>
<linearGradient id="paint1_linear" x1="-4.59005" y1="-21.375" x2="56.3864" y2="7.98973" gradientUnits="userSpaceOnUse">
<stop stop-color="#CFE9FF"/>
<stop offset="1" stop-color="#A1D6FB"/>
</linearGradient>
<linearGradient id="paint2_linear" x1="14.6541" y1="2.57952" x2="53.5899" y2="2.57952" gradientUnits="userSpaceOnUse">
<stop stop-color="#B0F4FF"/>
<stop offset="1" stop-color="#69DCFC"/>
</linearGradient>
<linearGradient id="paint3_linear" x1="14.7699" y1="29.2075" x2="24.5505" y2="41.8334" gradientUnits="userSpaceOnUse">
<stop stop-color="#6CBCFC"/>
<stop offset="1" stop-color="#458DFC"/>
</linearGradient>
<linearGradient id="paint4_linear" x1="13.7091" y1="30.0293" x2="23.4898" y2="42.6553" gradientUnits="userSpaceOnUse">
<stop stop-color="#B0F4FF"/>
<stop offset="0.0994384" stop-color="#A1EFFE"/>
<stop offset="0.2994" stop-color="#88E7FD"/>
<stop offset="0.5095" stop-color="#77E1FD"/>
<stop offset="0.7344" stop-color="#6CDDFC"/>
<stop offset="1" stop-color="#69DCFC"/>
</linearGradient>
<linearGradient id="paint5_linear" x1="29.5805" y1="26.551" x2="51.2398" y2="26.564" gradientUnits="userSpaceOnUse">
<stop stop-color="#6CBCFC"/>
<stop offset="1" stop-color="#458DFC"/>
</linearGradient>
<linearGradient id="paint6_linear" x1="29.5845" y1="30.4037" x2="43.7812" y2="30.4037" gradientUnits="userSpaceOnUse">
<stop stop-color="#6CBCFC"/>
<stop offset="1" stop-color="#458DFC"/>
</linearGradient>
<linearGradient id="paint7_linear" x1="29.5892" y1="35.0098" x2="58.2372" y2="35.0098" gradientUnits="userSpaceOnUse">
<stop stop-color="#6CBCFC"/>
<stop offset="1" stop-color="#458DFC"/>
</linearGradient>
<linearGradient id="paint8_linear" x1="10.7498" y1="47.9272" x2="57.6758" y2="47.9272" gradientUnits="userSpaceOnUse">
<stop stop-color="#6CBCFC"/>
<stop offset="1" stop-color="#458DFC"/>
</linearGradient>
<linearGradient id="paint9_linear" x1="29.5938" y1="39.5191" x2="58.2418" y2="39.5191" gradientUnits="userSpaceOnUse">
<stop stop-color="#6CBCFC"/>
<stop offset="1" stop-color="#458DFC"/>
</linearGradient>
<clipPath id="clip0">
<rect width="67.0754" height="95" fill="white" transform="translate(0.634949)"/>
</clipPath>
</defs>
</svg>
