<svg width="80" height="72" viewBox="0 0 80 72" fill="none" xmlns="http://www.w3.org/2000/svg">
<g clip-path="url(#clip0)">
<path d="M66.4753 14.0107H13.2582V71.1274H66.4753V14.0107Z" fill="url(#paint0_linear)"/>
<path d="M13.038 14.0107C13.1022 14.0107 13.1664 14.0383 13.2582 14.0658C13.2582 33.068 13.2582 52.0701 13.2582 71.0998C9.13846 71.421 5.66099 70.3841 2.89921 67.7233C0.944858 65.8332 -0.000204978 63.6127 -0.000204978 61.0987C-0.000204978 52.1986 -0.000204978 43.3077 -0.000204978 34.4076C-0.000204978 31.0127 -0.00938034 27.6178 -0.00938034 24.2229C-0.00938034 20.1215 2.20188 17.1395 6.26657 15.1209C8.35855 14.0933 10.6799 13.9373 13.038 14.0107Z" fill="url(#paint1_linear)"/>
<path d="M57.1807 14.0016C59.5571 14.0016 59.7957 14.0016 62.1629 14.0016C62.1629 33.068 62.1629 52.0701 62.1629 71.109C46.0051 71.109 33.7835 71.109 17.5706 71.109C17.5706 52.0793 17.5706 33.0771 17.5706 14.0199C19.9379 14.0199 20.4517 14.0199 22.8648 14.0199C22.8648 13.7813 22.8648 13.5978 22.8648 13.4235C22.8648 11.3774 22.874 9.32212 22.8557 7.27601C22.8373 5.84466 23.2227 4.59681 24.3421 3.62422C25.1311 2.94524 26.0395 2.59658 27.0671 2.59658C30.251 2.5874 33.4257 2.5874 36.6095 2.5874C41.9588 2.5874 47.3172 2.59658 52.6664 2.5874C54.0702 2.5874 55.2355 3.04617 56.153 4.11051C56.8871 4.96382 57.1623 5.96394 57.1623 7.08333C57.1532 9.23954 57.1623 11.3958 57.1623 13.552C57.1532 13.6712 57.1623 13.8089 57.1807 14.0016ZM28.6086 14.0016C28.8288 14.0016 28.994 14.0016 29.1591 14.0016C31.6915 14.0016 34.2331 14.0016 36.7655 14.0016C41.5 14.0016 46.2437 14.0016 50.9781 14.0107C51.3543 14.0107 51.4369 13.8914 51.4369 13.5336C51.4186 11.9279 51.4369 10.3222 51.4369 8.71654C51.4369 8.58809 51.4186 8.45963 51.4002 8.322C43.7847 8.322 36.215 8.322 28.6086 8.322C28.6086 10.2121 28.6086 12.0656 28.6086 14.0016Z" fill="white"/>
<mask id="mask0" mask-type="alpha" maskUnits="userSpaceOnUse" x="17" y="2" width="46" height="70">
<path d="M57.1807 14.0016C59.5571 14.0016 59.7956 14.0016 62.1629 14.0016C62.1629 33.068 62.1629 52.0701 62.1629 71.109C46.0051 71.109 33.7835 71.109 17.5706 71.109C17.5706 52.0793 17.5706 33.0771 17.5706 14.0199C19.9379 14.0199 20.4517 14.0199 22.8648 14.0199C22.8648 13.7813 22.8648 13.5978 22.8648 13.4235C22.8648 11.3774 22.874 9.32212 22.8556 7.27601C22.8373 5.84466 23.2226 4.59681 24.342 3.62422C25.1311 2.94524 26.0395 2.59658 27.0671 2.59658C30.251 2.5874 33.4256 2.5874 36.6095 2.5874C41.9587 2.5874 47.3171 2.59658 52.6664 2.5874C54.0702 2.5874 55.2355 3.04617 56.153 4.11051C56.8871 4.96382 57.1623 5.96394 57.1623 7.08333C57.1531 9.23954 57.1623 11.3958 57.1623 13.552C57.1531 13.6712 57.1623 13.8089 57.1807 14.0016ZM28.6086 14.0016C28.8288 14.0016 28.9939 14.0016 29.1591 14.0016C31.6915 14.0016 34.2331 14.0016 36.7655 14.0016C41.5 14.0016 46.2436 14.0016 50.9781 14.0107C51.3543 14.0107 51.4369 13.8914 51.4369 13.5336C51.4185 11.9279 51.4369 10.3222 51.4369 8.71654C51.4369 8.58809 51.4185 8.45963 51.4002 8.322C43.7846 8.322 36.215 8.322 28.6086 8.322C28.6086 10.2121 28.6086 12.0656 28.6086 14.0016Z" fill="#F7F9FC"/>
</mask>
<g mask="url(#mask0)">
<path d="M58.0958 0H20.9998V14.02H58.0958V0Z" fill="url(#paint2_linear)"/>
</g>
<path d="M79.9998 24.0762C79.9998 20.2959 77.9354 17.4791 74.2652 15.433C72.0081 14.176 69.4481 13.9374 66.824 13.9925C66.4203 14.0016 66.4753 14.2127 66.4753 14.4329C66.4753 21.0391 66.4753 27.6362 66.4753 34.2425C66.4753 45.8493 66.4753 57.447 66.4662 69.0538C66.4662 69.7236 66.4662 70.3934 66.4662 71.1183C68.1177 71.1733 69.6867 71.1825 71.2282 70.8155C76.4398 69.586 79.9907 65.7048 79.9907 61.1263C80.009 48.7854 79.9998 36.4262 79.9998 24.0762Z" fill="url(#paint3_linear)"/>
<path d="M44.2159 46.7852C44.2159 47.9688 44.2159 49.0882 44.2159 50.2168C44.2159 51.4921 44.2159 52.7675 44.2159 54.0337C44.2159 54.7953 43.8305 55.199 43.0781 55.199C41.0045 55.2082 38.9309 55.2082 36.8573 55.199C36.1691 55.199 35.7837 54.7677 35.7837 54.0429C35.7837 51.7674 35.7837 49.4919 35.7837 47.2164C35.7837 47.088 35.7837 46.9503 35.7837 46.7852C35.6094 46.7852 35.4809 46.7852 35.3433 46.7852C33.1045 46.7852 30.8566 46.7852 28.6178 46.7852C27.7278 46.7852 27.3608 46.4273 27.3608 45.5373C27.3608 43.5646 27.3608 41.5919 27.3608 39.6192C27.3608 38.72 27.7186 38.3622 28.6086 38.3622C30.8382 38.3622 33.0678 38.3622 35.2974 38.3622C35.4442 38.3622 35.5819 38.3622 35.7746 38.3622C35.7746 38.2154 35.7746 38.0961 35.7746 37.9768C35.7746 35.7013 35.7746 33.4258 35.7746 31.1504C35.7746 30.3062 36.1508 29.9392 36.9949 29.9392C38.9676 29.9392 40.9403 29.9392 42.913 29.9392C43.8397 29.9392 44.1975 30.2879 44.1975 31.2329C44.2067 33.4901 44.1975 35.738 44.1975 37.9952C44.1975 38.1053 44.1975 38.2154 44.1975 38.3714C44.3444 38.3714 44.4728 38.3714 44.5921 38.3714C46.8676 38.3714 49.1431 38.3714 51.4186 38.3805C52.2535 38.3805 52.6114 38.7476 52.6114 39.5825C52.6114 41.5644 52.6114 43.5463 52.6114 45.5282C52.6114 46.4365 52.2627 46.7852 51.3727 46.7852C49.1064 46.7852 46.84 46.7852 44.5829 46.7944C44.4912 46.7852 44.3811 46.7852 44.2159 46.7852Z" fill="url(#paint4_linear)"/>
</g>
<defs>
<linearGradient id="paint0_linear" x1="13.2595" y1="42.5656" x2="66.4728" y2="42.5656" gradientUnits="userSpaceOnUse">
<stop stop-color="#B0F4FF"/>
<stop offset="1" stop-color="#69DCFC"/>
</linearGradient>
<linearGradient id="paint1_linear" x1="-0.000204977" y1="42.5746" x2="13.2595" y2="42.5746" gradientUnits="userSpaceOnUse">
<stop stop-color="#6CBCFC"/>
<stop offset="1" stop-color="#458DFC"/>
</linearGradient>
<linearGradient id="paint2_linear" x1="20.996" y1="7.00849" x2="58.0942" y2="7.00849" gradientUnits="userSpaceOnUse">
<stop stop-color="#6CBCFC"/>
<stop offset="1" stop-color="#458DFC"/>
</linearGradient>
<linearGradient id="paint3_linear" x1="66.4684" y1="42.569" x2="80.0006" y2="42.569" gradientUnits="userSpaceOnUse">
<stop stop-color="#6CBCFC"/>
<stop offset="1" stop-color="#458DFC"/>
</linearGradient>
<linearGradient id="paint4_linear" x1="27.3664" y1="42.5783" x2="52.6297" y2="42.5783" gradientUnits="userSpaceOnUse">
<stop stop-color="#6CBCFC"/>
<stop offset="1" stop-color="#458DFC"/>
</linearGradient>
<clipPath id="clip0">
<rect width="80" height="71.1549" fill="white" transform="translate(-0.000183105)"/>
</clipPath>
</defs>
</svg>
