<svg width="62" height="85" viewBox="0 0 62 85" fill="none" xmlns="http://www.w3.org/2000/svg">
<g clip-path="url(#clip0)">
<path d="M61.8572 26.4807L61.6655 66.2815L61.6336 73.9798C61.6016 80.0968 55.788 85.032 48.6328 85.0001L12.8888 84.8403C5.74953 84.7924 -0.0321258 79.8093 -0.000182987 73.6763L0.223417 26.1772C0.239388 21.2261 4.07253 17.0416 9.31116 15.6521L9.32713 13.0966V11.787L52.8812 11.9946L52.8653 15.8597C58.0879 17.3131 61.8731 21.5136 61.8572 26.4807Z" fill="url(#paint0_linear)"/>
<path d="M56.1235 1.77289V2.12426L56.0915 6.27684L56.0596 10.3496V10.8447C56.0596 11.6113 55.4207 12.2342 54.6541 12.2342H54.3187L52.2105 12.2182L49.8946 12.2022L47.7864 12.1863L45.4705 12.1703L43.3303 12.1384L41.0145 12.1224L38.9063 12.1064L36.5744 12.0904L34.4502 12.0745L32.1344 12.0585L30.0261 12.0266L27.7103 12.0106L25.602 11.9946L23.2702 11.9786L21.146 11.9627L18.8461 11.9467L16.7379 11.9307L14.422 11.9148L12.2978 11.8988L9.98197 11.8828L7.85777 11.8668H7.52237C6.75574 11.8668 6.13286 11.228 6.13286 10.4614V10.4454V10.094L6.19674 1.88469V1.38958C6.19674 0.622947 6.8356 6.10352e-05 7.6182 6.10352e-05H7.9536L12.3937 0.0320039L16.8337 0.0639468L18.9579 0.0799182L21.2738 0.0958897L23.382 0.111861L27.8061 0.159775L30.122 0.175747L32.2302 0.191718L34.546 0.20769L36.6543 0.223661L38.9701 0.239633L41.0784 0.255604L43.3942 0.271576L45.5025 0.287547L47.8503 0.31949L49.9585 0.335461L52.2743 0.351433L54.3985 0.367404H54.7339C55.5165 0.383376 56.1235 1.00626 56.1235 1.77289Z" fill="url(#paint1_linear)"/>
<path d="M56.1235 2.14025L56.0915 6.27685L56.0596 10.3496L54.159 10.3336L51.6355 10.3176L49.3196 10.3017H46.7802L44.4643 10.2857L41.9408 10.2697L39.625 10.2537H37.0855L34.7696 10.2378L32.2302 10.2218L29.9303 10.2058H27.3908L25.075 10.1899L22.5355 10.1739L20.2197 10.1579H17.6962L15.3803 10.1419L12.8409 10.126L10.525 10.11H8.00151L6.13286 10.094L6.19674 1.8847L10.6368 1.90068L15.4761 1.93262L17.792 1.94859L20.3315 1.96456H22.6473L27.4867 1.9965L30.0261 2.01248H32.342L34.8814 2.02845L37.1813 2.04442L39.7208 2.06039H42.0367L44.5761 2.07636L46.876 2.09233L49.4155 2.1083H51.7313L54.2708 2.12428L56.1235 2.14025Z" fill="url(#paint2_linear)"/>
<path d="M61.8104 34.8842L0.176579 34.5927L0.047344 61.9198L61.6811 62.2113L61.8104 34.8842Z" fill="#F7F9FC"/>
<path d="M61.8213 34.8841L0.187477 34.5927L0.164221 39.5119L61.798 39.8033L61.8213 34.8841Z" fill="#FBFCF7"/>
<path d="M24.2125 45.5804L20.2356 45.5644L20.2516 41.5716L14.7734 41.5556L14.7574 45.5325L10.7805 45.5165L10.7486 50.9788L14.7255 50.9947L14.7095 54.9876L20.1877 55.0036L20.2037 51.0267L24.1806 51.0426L24.2125 45.5804Z" fill="url(#paint3_linear)"/>
<path d="M51.2362 46.906L31.5274 46.8102C31.0004 46.8102 30.5691 46.379 30.5691 45.8519V45.4047C30.5691 44.8776 31.0004 44.4464 31.5274 44.4464L51.2362 44.5422C51.7632 44.5422 52.1945 44.9735 52.1945 45.5005V45.9477C52.1945 46.4748 51.7632 46.906 51.2362 46.906Z" fill="url(#paint4_linear)"/>
<path opacity="0.5" d="M51.2202 52.7676L31.5115 52.6718C30.9844 52.6718 30.5532 52.2405 30.5532 51.7135V51.2663C30.5532 50.7392 30.9844 50.308 31.5115 50.308L51.2202 50.4038C51.7473 50.4038 52.1785 50.835 52.1785 51.3621V51.8093C52.1785 52.3364 51.7473 52.7676 51.2202 52.7676Z" fill="url(#paint5_linear)"/>
<path opacity="0.08" d="M6.13286 1.77292V2.12429L6.1648 6.27686L6.19674 10.3336V10.8287C6.19674 11.5954 6.8356 12.2182 7.60223 12.2182H7.93763L10.0618 12.2023L12.3777 12.1863L14.4859 12.1703L16.8018 12.1544L18.91 12.1384L21.2259 12.1224L23.3341 12.1064L25.65 12.0905L27.7742 12.0745L30.09 12.0585L32.1982 12.0426L34.5141 12.0266L36.6223 12.0106L38.9382 11.9946L41.0624 11.9787L43.3783 11.9627L45.4865 11.9467L47.8023 11.9308L49.9106 11.9148L52.2264 11.8988L54.3506 11.8828H54.686C55.4527 11.8828 56.0755 11.244 56.0755 10.4774V10.4614V10.11C31.3677 11.1801 7.52237 0.367432 7.52237 0.367432C6.75574 0.383403 6.13286 1.00629 6.13286 1.77292Z" fill="#1A6FB5"/>
</g>
<defs>
<linearGradient id="paint0_linear" x1="-0.000183314" y1="11.3334" x2="57.1387" y2="90.1945" gradientUnits="userSpaceOnUse">
<stop stop-color="#6CBCFC"/>
<stop offset="1" stop-color="#458DFC"/>
</linearGradient>
<linearGradient id="paint1_linear" x1="-629.93" y1="-39.931" x2="-27.6042" y2="2.02212" gradientUnits="userSpaceOnUse">
<stop stop-color="#B0F4FF"/>
<stop offset="0.0525488" stop-color="#A9F2FF"/>
<stop offset="0.2879" stop-color="#8DE8FE"/>
<stop offset="0.5247" stop-color="#79E1FD"/>
<stop offset="0.7618" stop-color="#6DDDFC"/>
<stop offset="1" stop-color="#69DCFC"/>
</linearGradient>
<linearGradient id="paint2_linear" x1="6.13976" y1="6.11319" x2="56.1256" y2="6.11319" gradientUnits="userSpaceOnUse">
<stop stop-color="#B0F4FF"/>
<stop offset="0.0525488" stop-color="#A9F2FF"/>
<stop offset="0.2879" stop-color="#8DE8FE"/>
<stop offset="0.5247" stop-color="#79E1FD"/>
<stop offset="0.7618" stop-color="#6DDDFC"/>
<stop offset="1" stop-color="#69DCFC"/>
</linearGradient>
<linearGradient id="paint3_linear" x1="21.9777" y1="43.0954" x2="12.5973" y2="53.9125" gradientUnits="userSpaceOnUse">
<stop stop-color="#6CBCFC"/>
<stop offset="1" stop-color="#458DFC"/>
</linearGradient>
<linearGradient id="paint4_linear" x1="52.3845" y1="45.671" x2="28.8865" y2="45.671" gradientUnits="userSpaceOnUse">
<stop stop-color="#6CBCFC"/>
<stop offset="1" stop-color="#458DFC"/>
</linearGradient>
<linearGradient id="paint5_linear" x1="30.5517" y1="51.5323" x2="52.1788" y2="51.5323" gradientUnits="userSpaceOnUse">
<stop stop-color="#6CBCFC"/>
<stop offset="1" stop-color="#458DFC"/>
</linearGradient>
<clipPath id="clip0">
<rect width="61.8574" height="85" fill="white" transform="translate(-0.000183105)"/>
</clipPath>
</defs>
</svg>
