<svg width="92" height="90" viewBox="0 0 92 90" fill="none" xmlns="http://www.w3.org/2000/svg">
<g clip-path="url(#clip0)">
<path d="M56.2154 43.3152L47.1376 51.9803L8.80323 88.5661C7.79684 89.5289 6.50581 90.0103 5.21479 90.0103C3.80177 90.0103 2.38876 89.4367 1.36204 88.2998C-0.66091 86.067 -0.396605 82.5743 1.93131 80.6692L47.1376 43.8273L52.1187 39.7713L56.2154 43.3152Z" fill="url(#paint0_linear)"/>
<path d="M46.7411 52.4207L37.8056 60.9424L36.9822 52.1851L41.8718 48.2008L46.7411 52.4207Z" fill="#3A81D6" fill-opacity="0.8"/>
<path d="M91.9779 29.9079C91.9779 46.4289 78.6813 59.8259 62.2944 59.8259C51.9662 59.8259 42.868 54.5101 37.5514 46.4391C34.4306 41.7071 32.611 36.0226 32.611 29.9079C32.611 13.3869 45.9075 6.10352e-05 62.2944 6.10352e-05C69.6949 6.10352e-05 76.455 2.72454 81.6496 7.2312C87.9726 12.7211 91.9779 20.8434 91.9779 29.9079Z" fill="url(#paint1_linear)"/>
<path d="M62.2944 53.2093C75.0669 53.2093 85.4211 42.7769 85.4211 29.9079C85.4211 17.0388 75.0669 6.60638 62.2944 6.60638C49.5219 6.60638 39.1678 17.0388 39.1678 29.9079C39.1678 42.7769 49.5219 53.2093 62.2944 53.2093Z" fill="white"/>
<path opacity="0.06" d="M91.9778 29.9079C91.9778 46.4289 78.6813 59.8259 62.2944 59.8259C51.9662 59.8259 42.868 54.5101 37.5514 46.4391C71.0266 43.6942 79.8503 15.1179 81.6598 7.2312C87.9726 12.7211 91.9778 20.8434 91.9778 29.9079Z" fill="#1A6FB5" fill-opacity="0.5"/>
<path d="M62.2944 29.9591C64.9781 29.9591 67.1535 27.7672 67.1535 25.0632C67.1535 22.3592 64.9781 20.1674 62.2944 20.1674C59.6107 20.1674 57.4352 22.3592 57.4352 25.0632C57.4352 27.7672 59.6005 29.9591 62.2944 29.9591ZM62.2944 32.407C59.0516 32.407 52.5761 34.0458 52.5761 37.3029V38.532C52.5761 39.208 53.1251 39.7611 53.796 39.7611H70.8131C71.4841 39.7611 72.033 39.208 72.033 38.532V37.3029C72.0127 34.0561 65.5372 32.407 62.2944 32.407Z" fill="url(#paint2_linear)"/>
</g>
<defs>
<linearGradient id="paint0_linear" x1="5.67456" y1="84.3266" x2="53.9242" y2="40.7923" gradientUnits="userSpaceOnUse">
<stop stop-color="#67C3F3"/>
<stop offset="1" stop-color="#5A98F2"/>
</linearGradient>
<linearGradient id="paint1_linear" x1="50.0172" y1="2.11342" x2="72.7816" y2="52.9054" gradientUnits="userSpaceOnUse">
<stop stop-color="#67C3F3"/>
<stop offset="1" stop-color="#5A98F2"/>
</linearGradient>
<linearGradient id="paint2_linear" x1="55.2685" y1="28.3948" x2="72.9194" y2="36.9391" gradientUnits="userSpaceOnUse">
<stop stop-color="#B0F4FF"/>
<stop offset="0.071077" stop-color="#A6F1FF"/>
<stop offset="0.2937" stop-color="#8BE8FD"/>
<stop offset="0.5209" stop-color="#78E1FD"/>
<stop offset="0.7536" stop-color="#6DDDFC"/>
<stop offset="1" stop-color="#69DCFC"/>
</linearGradient>
<clipPath id="clip0">
<rect width="91.978" height="90" fill="white" transform="translate(-0.000183105)"/>
</clipPath>
</defs>
</svg>
