<svg width="70" height="95" viewBox="0 0 70 95" fill="none" xmlns="http://www.w3.org/2000/svg">
<g clip-path="url(#clip0)">
<path d="M69.4223 4.31029V90.7055C69.4223 93.0896 67.4961 95.0158 65.112 95.0158H4.3101C1.92603 95 -0.000183105 93.0738 -0.000183105 90.7055V4.31029C-0.000183105 1.92621 1.92603 0 4.3101 0H65.1278C67.4961 0 69.4223 1.92621 69.4223 4.31029Z" fill="url(#paint0_linear)"/>
<path d="M64.9998 7.94666V87.0533C64.9998 89.2363 63.3073 91 61.2125 91H7.78717C5.69233 90.9855 3.99982 89.2218 3.99982 87.0533V7.94666C3.99982 5.76371 5.69233 4 7.78717 4H61.2263C63.3073 4 64.9998 5.76371 64.9998 7.94666Z" fill="url(#paint1_linear)"/>
<path d="M26.872 18.2516V22.183C26.872 22.4672 26.651 22.6882 26.3668 22.6882H21.5512C21.2671 22.6882 21.046 22.9093 21.046 23.1935V28.009C21.046 28.2932 20.825 28.5142 20.5408 28.5142H16.6094C16.3252 28.5142 16.1042 28.2932 16.1042 28.009V23.1935C16.1042 22.9093 15.8831 22.6882 15.5989 22.6882H10.7992C10.515 22.6882 10.294 22.4672 10.294 22.183V18.2516C10.294 17.9674 10.515 17.7464 10.7992 17.7464H15.6147C15.8989 17.7464 16.12 17.5254 16.12 17.2412V12.4256C16.12 12.1415 16.341 11.9204 16.6252 11.9204H20.5566C20.8408 11.9204 21.0618 12.1415 21.0618 12.4256V17.2412C21.0618 17.5254 21.2828 17.7464 21.567 17.7464H26.3668C26.651 17.7464 26.872 17.9674 26.872 18.2516Z" fill="url(#paint2_linear)"/>
<path opacity="0.5" d="M58.5755 39.6767H10.8466C10.5308 39.6767 10.2782 39.4241 10.2782 39.1083V37.2926C10.2782 36.9769 10.5308 36.7242 10.8466 36.7242H58.5755C58.8913 36.7242 59.1439 36.9769 59.1439 37.2926V39.1083C59.1281 39.4241 58.8913 39.6767 58.5755 39.6767Z" fill="url(#paint3_linear)"/>
<path d="M58.5755 17.0517H34.8926C34.5768 17.0517 34.3242 16.7991 34.3242 16.4833V14.6834C34.3242 14.3676 34.5768 14.115 34.8926 14.115H58.5755C58.8913 14.115 59.1439 14.3676 59.1439 14.6834V16.4991C59.1281 16.7991 58.8913 17.0517 58.5755 17.0517Z" fill="url(#paint4_linear)"/>
<path opacity="0.5" d="M51.5654 24.7249H34.8926C34.5768 24.7249 34.3242 24.4723 34.3242 24.1565V22.3408C34.3242 22.0251 34.5768 21.7725 34.8926 21.7725H51.5654C51.8811 21.7725 52.1338 22.0251 52.1338 22.3408V24.1565C52.118 24.4723 51.8811 24.7249 51.5654 24.7249Z" fill="url(#paint5_linear)"/>
<path opacity="0.5" d="M58.5755 48.2973H10.8466C10.5308 48.2973 10.2782 48.0447 10.2782 47.7289V45.9132C10.2782 45.5975 10.5308 45.3448 10.8466 45.3448H58.5755C58.8913 45.3448 59.1439 45.5975 59.1439 45.9132V47.7289C59.1281 48.0447 58.8913 48.2973 58.5755 48.2973Z" fill="url(#paint6_linear)"/>
<path opacity="0.5" d="M58.5755 56.9179H10.8466C10.5308 56.9179 10.2782 56.6653 10.2782 56.3495V54.5338C10.2782 54.2181 10.5308 53.9655 10.8466 53.9655H58.5755C58.8913 53.9655 59.1439 54.2181 59.1439 54.5338V56.3653C59.1281 56.6653 58.8913 56.9179 58.5755 56.9179Z" fill="url(#paint7_linear)"/>
<path opacity="0.5" d="M58.5755 65.5543H10.8466C10.5308 65.5543 10.2782 65.3017 10.2782 64.9859V63.1702C10.2782 62.8544 10.5308 62.6018 10.8466 62.6018H58.5755C58.8913 62.6018 59.1439 62.8544 59.1439 63.1702V64.9859C59.1281 65.3017 58.8913 65.5543 58.5755 65.5543Z" fill="url(#paint8_linear)"/>
<path opacity="0.5" d="M58.5755 74.1749H10.8466C10.5308 74.1749 10.2782 73.9223 10.2782 73.6065V71.7908C10.2782 71.475 10.5308 71.2224 10.8466 71.2224H58.5755C58.8913 71.2224 59.1439 71.475 59.1439 71.7908V73.6065C59.1281 73.9223 58.8913 74.1749 58.5755 74.1749Z" fill="url(#paint9_linear)"/>
<path opacity="0.5" d="M58.5755 82.7955H10.8466C10.5308 82.7955 10.2782 82.5429 10.2782 82.2271V80.4114C10.2782 80.0956 10.5308 79.843 10.8466 79.843H58.5755C58.8913 79.843 59.1439 80.0956 59.1439 80.4114V82.2271C59.1281 82.5429 58.8913 82.7955 58.5755 82.7955Z" fill="url(#paint10_linear)"/>
<path opacity="0.1" d="M69.4223 4.31029V90.7055C69.4223 93.0896 67.4961 95.0158 65.112 95.0158H4.3101C1.92603 95 -0.000183105 93.0738 -0.000183105 90.7055V89.2056C37.0872 73.8906 54.36 15.1571 58.2597 0H65.112C67.4961 0 69.4223 1.92621 69.4223 4.31029Z" fill="#1A6FB5" fill-opacity="0.4"/>
</g>
<defs>
<linearGradient id="paint0_linear" x1="94.9998" y1="126" x2="-6.00019" y2="-5.5" gradientUnits="userSpaceOnUse">
<stop offset="0.3061" stop-color="#5BA7FC"/>
<stop offset="1" stop-color="#69B8FC"/>
</linearGradient>
<linearGradient id="paint1_linear" x1="8.62391" y1="7.04564" x2="57.9383" y2="78.0313" gradientUnits="userSpaceOnUse">
<stop offset="0.3061" stop-color="white"/>
<stop offset="1" stop-color="white"/>
</linearGradient>
<linearGradient id="paint2_linear" x1="9.99982" y1="9.50003" x2="24.9998" y2="34" gradientUnits="userSpaceOnUse">
<stop stop-color="#B0F4FF"/>
<stop offset="0.368525" stop-color="#80E4FD"/>
<stop offset="1" stop-color="#6CDDFC"/>
</linearGradient>
<linearGradient id="paint3_linear" x1="10.2904" y1="38.2072" x2="59.1353" y2="38.2072" gradientUnits="userSpaceOnUse">
<stop stop-color="#6CBCFC"/>
<stop offset="1" stop-color="#458DFC"/>
</linearGradient>
<linearGradient id="paint4_linear" x1="34.3247" y1="15.5844" x2="59.1353" y2="15.5844" gradientUnits="userSpaceOnUse">
<stop stop-color="#6CBCFC"/>
<stop offset="1" stop-color="#458DFC"/>
</linearGradient>
<linearGradient id="paint5_linear" x1="34.3247" y1="23.2616" x2="52.1254" y2="23.2616" gradientUnits="userSpaceOnUse">
<stop stop-color="#6CBCFC"/>
<stop offset="1" stop-color="#458DFC"/>
</linearGradient>
<linearGradient id="paint6_linear" x1="10.2904" y1="46.8317" x2="59.1353" y2="46.8317" gradientUnits="userSpaceOnUse">
<stop stop-color="#6CBCFC"/>
<stop offset="1" stop-color="#458DFC"/>
</linearGradient>
<linearGradient id="paint7_linear" x1="10.2904" y1="55.4562" x2="59.1353" y2="55.4562" gradientUnits="userSpaceOnUse">
<stop stop-color="#6CBCFC"/>
<stop offset="1" stop-color="#458DFC"/>
</linearGradient>
<linearGradient id="paint8_linear" x1="10.2904" y1="64.0807" x2="59.1353" y2="64.0807" gradientUnits="userSpaceOnUse">
<stop stop-color="#6CBCFC"/>
<stop offset="1" stop-color="#458DFC"/>
</linearGradient>
<linearGradient id="paint9_linear" x1="10.2904" y1="72.7052" x2="59.1353" y2="72.7052" gradientUnits="userSpaceOnUse">
<stop stop-color="#6CBCFC"/>
<stop offset="1" stop-color="#458DFC"/>
</linearGradient>
<linearGradient id="paint10_linear" x1="10.2904" y1="81.3297" x2="59.1353" y2="81.3297" gradientUnits="userSpaceOnUse">
<stop stop-color="#6CBCFC"/>
<stop offset="1" stop-color="#458DFC"/>
</linearGradient>
<clipPath id="clip0">
<rect width="69.4225" height="95" fill="white" transform="translate(-0.000183105)"/>
</clipPath>
</defs>
</svg>
